<?xml version="1.0" encoding="UTF-8" standalone="no"?>
<!DOCTYPE svg PUBLIC "-//W3C//DTD SVG 1.1//EN" "http://www.w3.org/Graphics/SVG/1.1/DTD/svg11.dtd">
<svg width="100%" height="100%" viewBox="0 0 118 53" version="1.1" xmlns="http://www.w3.org/2000/svg" xmlns:xlink="http://www.w3.org/1999/xlink" xml:space="preserve" xmlns:serif="http://www.serif.com/" style="fill-rule:evenodd;clip-rule:evenodd;stroke-linejoin:round;stroke-miterlimit:2;">
    <path d="M17.514,34.734L17.514,49.008L24.819,49.008L24.819,37.496L31.347,37.496L31.347,26.469L17.514,26.469L11.496,22.995L28.313,22.995L28.313,7.801L7.522,7.801L7.522,22.995L9.217,22.995L3.199,26.469L2.125,25.849L2.125,24.483C-0.706,18.821 -0.706,12.143 2.125,6.481L2.125,2.16C2.125,0.975 3.1,0 4.285,0L113.647,0C114.832,0 115.807,0.975 115.807,2.16L115.807,6.481C118.637,12.143 118.637,18.821 115.807,24.483L115.807,25.85L114.732,26.47L108.715,22.996L110.41,22.996L110.41,7.802L89.619,7.801L89.618,22.995L106.435,22.996L100.793,26.253L95.332,26.253L95.332,34.936L100.766,34.936L107.575,38.867L114.732,34.735L115.804,35.354L115.801,50.044L112.971,52.204L4.959,52.197L2.122,50.036L2.124,35.355L3.199,34.734L10.356,38.866L17.514,34.734ZM58.958,40.97L75.094,24.845L58.961,8.703L42.825,24.842L58.958,40.97Z"/>
</svg>
