<?xml version="1.0" encoding="UTF-8" standalone="no"?>
<!DOCTYPE svg PUBLIC "-//W3C//DTD SVG 1.1//EN" "http://www.w3.org/Graphics/SVG/1.1/DTD/svg11.dtd">
<svg width="100%" height="100%" viewBox="0 0 118 53" version="1.1" xmlns="http://www.w3.org/2000/svg" xmlns:xlink="http://www.w3.org/1999/xlink" xml:space="preserve" xmlns:serif="http://www.serif.com/" style="fill-rule:evenodd;clip-rule:evenodd;stroke-linejoin:round;stroke-miterlimit:2;">
    <path id="Main" d="M4.285,0C3.1,0 2.125,0.975 2.125,2.16L2.125,6.481C-0.706,12.143 -0.706,18.821 2.125,24.483L2.122,50.036L4.959,52.197L112.971,52.204L115.801,50.044L115.807,24.483C118.637,18.821 118.637,12.143 115.807,6.481L115.807,2.16C115.807,0.975 114.832,0 113.647,0L4.285,0ZM101.905,30.602C101.905,33.713 104.465,36.272 107.575,36.272C110.685,36.272 113.244,33.713 113.244,30.602C113.244,27.492 110.685,24.933 107.575,24.933C104.465,24.933 101.905,27.492 101.905,30.602ZM4.687,30.601C4.687,33.712 7.246,36.271 10.356,36.271C13.467,36.271 16.026,33.712 16.026,30.601C16.026,27.491 13.467,24.932 10.356,24.932C7.246,24.932 4.687,27.491 4.687,30.601ZM104.33,8.279L13.6,8.279C9.649,8.279 6.398,11.53 6.398,15.482C6.398,19.433 9.649,22.684 13.601,22.684L104.33,22.684C108.282,22.684 111.533,19.433 111.533,15.482C111.533,11.53 108.282,8.279 104.33,8.279Z"/>
    <g id="Area">
        <g transform="matrix(1,0,0,-1,-17.0534,-3.21342)">
            <path d="M18.386,-11.492L30.654,-11.492C29.096,-11.492 27.579,-11.998 26.333,-12.933L17.896,-12.933C18.041,-12.447 18.205,-11.966 18.386,-11.492Z" style="fill:rgb(233,155,0);fill-rule:nonzero;"/>
        </g>
        <g transform="matrix(1,0,0,-1,-17.0534,-3.21342)">
            <path d="M23.907,-16.173L17.212,-16.173C17.273,-15.69 17.351,-15.21 17.447,-14.733L24.639,-14.733C24.342,-15.184 24.096,-15.667 23.907,-16.173Z" style="fill:rgb(233,155,0);fill-rule:nonzero;"/>
        </g>
        <g transform="matrix(1,0,0,-1,-17.0534,-3.21342)">
            <path d="M17.066,-17.973L23.487,-17.973C23.439,-18.452 23.439,-18.934 23.487,-19.413L17.066,-19.413C17.049,-18.933 17.049,-18.453 17.066,-17.973Z" style="fill:rgb(233,155,0);fill-rule:nonzero;"/>
        </g>
        <g transform="matrix(1,0,0,-1,-17.0534,-3.21342)">
            <path d="M24.636,-22.654L17.446,-22.654C17.351,-22.177 17.272,-21.696 17.212,-21.214L23.906,-21.214C24.095,-21.719 24.34,-22.203 24.636,-22.654Z" style="fill:rgb(233,155,0);fill-rule:nonzero;"/>
        </g>
        <g transform="matrix(1,0,0,-1,-17.0534,-3.21342)">
            <path d="M24.893,-25.894C23.708,-25.894 22.733,-26.869 22.733,-28.054L22.733,-30.61C24.491,-28.045 28.049,-27.38 30.615,-29.138C31.196,-29.536 31.697,-30.039 32.094,-30.621L32.094,-25.899L18.383,-25.89C18.202,-25.417 18.04,-24.938 17.895,-24.454L26.328,-24.454C27.575,-25.391 29.094,-25.898 30.654,-25.898" style="fill:rgb(233,155,0);fill-rule:nonzero;"/>
        </g>
        <g transform="matrix(1,0,0,-1,-17.0534,-3.21342)">
            <path d="M32.094,-37.009L32.094,-55.417L24.893,-55.419C23.708,-55.419 22.733,-54.444 22.733,-53.259L22.733,-37.02C24.491,-39.585 28.049,-40.25 30.615,-38.491C31.196,-38.093 31.697,-37.59 32.094,-37.009Z" style="fill:rgb(233,155,0);fill-rule:nonzero;"/>
        </g>
        <g transform="matrix(1,0,0,-1,-17.0534,-3.21342)">
            <path d="M121.384,-25.899C122.944,-25.899 124.463,-25.392 125.71,-24.455L134.143,-24.455C133.999,-24.94 133.836,-25.419 133.655,-25.891L119.944,-25.9L119.944,-30.622C121.696,-28.052 125.252,-27.38 127.822,-29.132C128.404,-29.529 128.907,-30.03 129.305,-30.611L129.305,-28.055C129.305,-26.87 128.33,-25.895 127.145,-25.895" style="fill:rgb(233,155,0);fill-rule:nonzero;"/>
        </g>
        <g transform="matrix(1,0,0,-1,-17.0534,-3.21342)">
            <path d="M134.592,-22.655L127.402,-22.655C127.698,-22.204 127.944,-21.721 128.132,-21.215L134.827,-21.215C134.766,-21.697 134.687,-22.178 134.592,-22.655Z" style="fill:rgb(233,155,0);fill-rule:nonzero;"/>
        </g>
        <g transform="matrix(1,0,0,-1,-17.0534,-3.21342)">
            <path d="M134.972,-19.415L128.551,-19.414C128.599,-18.936 128.599,-18.453 128.551,-17.974L134.972,-17.974C134.989,-18.454 134.989,-18.935 134.972,-19.415Z" style="fill:rgb(233,155,0);fill-rule:nonzero;"/>
        </g>
        <g transform="matrix(1,0,0,-1,-17.0534,-3.21342)">
            <path d="M121.385,-11.493L133.652,-11.494C133.834,-11.967 133.997,-12.448 134.142,-12.934L125.706,-12.934C124.459,-11.999 122.943,-11.493 121.385,-11.493Z" style="fill:rgb(233,155,0);fill-rule:nonzero;"/>
        </g>
        <g transform="matrix(1,0,0,-1,-17.0534,-3.21342)">
            <path d="M134.826,-16.174L128.131,-16.174C127.942,-15.668 127.697,-15.185 127.399,-14.734L134.591,-14.734C134.687,-15.211 134.765,-15.691 134.826,-16.174Z" style="fill:rgb(233,155,0);fill-rule:nonzero;"/>
        </g>
        <g transform="matrix(1,0,0,-1,-17.0534,-3.21342)">
            <path d="M119.944,-55.418L119.944,-37.01C121.696,-39.579 125.252,-40.252 127.822,-38.5C128.404,-38.103 128.906,-37.602 129.305,-37.021L129.304,-53.26C129.304,-54.445 128.329,-55.42 127.144,-55.42L119.944,-55.418Z" style="fill:rgb(233,155,0);fill-rule:nonzero;"/>
        </g>
    </g>
</svg>
